<svg xmlns="http://www.w3.org/2000/svg" viewBox="0 0 360 360"><defs><style>.cls-1{fill:#555759;}.cls-2{fill:#9a3820;}.cls-3{fill:none;}</style></defs><g id="_:___Dev" data-name="[:]_ Dev"><rect class="cls-1" x="221.4" y="224.07" width="70.49" height="18.85"/><path class="cls-2" d="M68.11,242.92V82.62H110.6v18.85H90.89v122.6H110.6v18.85Z"/><path class="cls-1" d="M125.57,141.06v-24h24v24Zm0,66.63v-24h24v24Z"/><path class="cls-2" d="M202.91,82.62v160.3H160.43V224.07h19.71V101.3H160.43V82.62Z"/><path class="cls-2" d="M81.7,277.11h-4l.19-4.64,0-1.58-3.16-.05-2.8.07,0,1.17.14,5h-4l.22-4.64-.22-11h4L72,267.66l3,.07,2.87-.05-.12-6.24h4l-.22,10.64Z"/><path class="cls-2" d="M94.22,274.41l-.25,2.7H85.05l.17-3.62-.17-8.72h9l.22.26-.24,2.68-3.21-.13H88.7l0,1.9h2.09l2.11-.07.2.26-.22,2.7-2.33-.07-1.92,0,0,.81,0,1.16h2l3.36-.12Z"/><path class="cls-2" d="M103.65,277.11l-.34-2,0-.19L101,274.9l-2,.05-.36,2.16H95.11l4.11-12.34h4.38l3.74,12.34Zm-2.19-9.06h-.22l-1.34,4.18,1.32,0,1.33,0Z"/><path class="cls-2" d="M117,267.75l-2.58-.14H114l-.1,5.52.15,4h-3.65l.17-3.62-.09-5.88H110l-2.63.14-.24-.26.22-2.72H117l.19.26Z"/><path class="cls-2" d="M130.82,277.11h-3.65l.17-3.62,0-1-2.43,0-2.14,0,0,.64.15,4h-3.65l.17-3.62-.17-8.72h3.72l-.12,4.71,2.29,0,2.16,0-.1-4.71h3.72l-.19,8.36Z"/><path class="cls-1" d="M146.88,276.19l0,.44a16.6,16.6,0,0,1-3.92.75l-.39-.32q-1.46-2.71-2.52-5h-2.07l.15,5h-4l.22-4.64-.22-11,6.62,0a5.69,5.69,0,0,1,3.92,1.23,4.45,4.45,0,0,1,1.37,3.51,5.11,5.11,0,0,1-.73,2.67,6,6,0,0,1-2.06,2.09C144.58,273,145.8,274.76,146.88,276.19Zm-6.75-7a2.58,2.58,0,0,0,1.75-2.69,2.16,2.16,0,0,0-.6-1.69,2.82,2.82,0,0,0-1.86-.6l-1.31.07-.1,4.82Z"/><path class="cls-1" d="M158.39,266.14a6.16,6.16,0,0,1,1.55,4.48,6.91,6.91,0,0,1-1.68,5,6.25,6.25,0,0,1-4.76,1.77,5.76,5.76,0,0,1-4.37-1.63,6.43,6.43,0,0,1-1.54-4.6,6.68,6.68,0,0,1,1.68-4.86,6.31,6.31,0,0,1,4.76-1.72A5.79,5.79,0,0,1,158.39,266.14Zm-6.06,1.6a1.63,1.63,0,0,0-.71,1,7,7,0,0,0-.22,1.94,9.34,9.34,0,0,0,.24,2.42,1.94,1.94,0,0,0,.74,1.17,2.52,2.52,0,0,0,1.43.34,2.8,2.8,0,0,0,1.39-.28,1.57,1.57,0,0,0,.7-1,6.49,6.49,0,0,0,.22-1.94,10,10,0,0,0-.22-2.41,1.91,1.91,0,0,0-.74-1.19,2.75,2.75,0,0,0-1.47-.34A2.81,2.81,0,0,0,152.33,267.74Z"/><path class="cls-1" d="M172.13,271.78a2.65,2.65,0,0,1,.59,1.78,3,3,0,0,1-1.6,2.79,10.29,10.29,0,0,1-4.82.88c-1.26,0-2.64,0-4.13-.12l.17-3.62-.17-8.72,5.5,0a5.93,5.93,0,0,1,3.37.82,2.64,2.64,0,0,1,1.22,2.34,2.91,2.91,0,0,1-.52,1.69,3.42,3.42,0,0,1-1.47,1.15A3.69,3.69,0,0,1,172.13,271.78ZM169,273.39a1,1,0,0,0-.31-.73,2.58,2.58,0,0,0-1-.48l-2,.05,0,.9,0,1.53a10,10,0,0,0,1.29.09C168.29,274.75,169,274.3,169,273.39Zm-1-5.88a4.74,4.74,0,0,0-1.85-.24h-.36l-.07,2.5,1.58.05a1.75,1.75,0,0,0,.91-.49,1.34,1.34,0,0,0,.28-.89A.93.93,0,0,0,168,267.51Z"/><path class="cls-1" d="M184.31,274.41l-.24,2.7h-8.92l.17-3.62-.17-8.72h9l.22.26-.24,2.68-3.21-.13H178.8l-.05,1.9h2.09l2.11-.07.2.26-.22,2.7-2.33-.07-1.92,0,0,.81,0,1.16h2l3.36-.12Z"/><path class="cls-1" d="M197.56,276.26l-.05.41a15,15,0,0,1-3.55.66l-.51-.36c-.68-1.25-1.3-2.46-1.87-3.63H190l.14,3.77h-3.64l.17-3.62-.17-8.72,5.85,0a5,5,0,0,1,3.33,1,3.45,3.45,0,0,1,1.17,2.8,4,4,0,0,1-.58,2.09,5.16,5.16,0,0,1-1.63,1.66C195.38,273.43,196.36,274.75,197.56,276.26Zm-5-8.53a2.53,2.53,0,0,0-1.45-.41l-.95.07-.07,3.26,1.63.09A1.82,1.82,0,0,0,193,268.9,1.41,1.41,0,0,0,192.52,267.73Z"/><path class="cls-1" d="M207.79,267.75l-2.57-.14h-.44l-.1,5.52.15,4h-3.65l.17-3.62-.1-5.88h-.43l-2.63.14-.24-.26.22-2.72h9.65l.19.26Z"/><path class="cls-1" d="M218,265.18l-.53,3.16-.54.12a7.83,7.83,0,0,0-1.59-.88,3.91,3.91,0,0,0-1.37-.31,1.22,1.22,0,0,0-.79.23.69.69,0,0,0-.28.57.77.77,0,0,0,.41.68,8.94,8.94,0,0,0,1.41.68,14.82,14.82,0,0,1,1.79.82,3.78,3.78,0,0,1,1.24,1.13,3.08,3.08,0,0,1,.52,1.82,3.86,3.86,0,0,1-2.27,3.57,6.59,6.59,0,0,1-2.93.59,12.28,12.28,0,0,1-4.14-.73l.52-3.29.36-.26a7.1,7.1,0,0,0,1.9,1.2,4.68,4.68,0,0,0,1.82.45,1.31,1.31,0,0,0,.82-.24.72.72,0,0,0,.32-.61.79.79,0,0,0-.41-.68,9.42,9.42,0,0,0-1.41-.68,15,15,0,0,1-1.81-.85,4.06,4.06,0,0,1-1.24-1.14,3.11,3.11,0,0,1-.53-1.85,3.66,3.66,0,0,1,.63-2.1,4.19,4.19,0,0,1,1.78-1.49,6.55,6.55,0,0,1,2.77-.54A10.55,10.55,0,0,1,218,265.18Z"/><path class="cls-1" d="M230.68,266.14a6.2,6.2,0,0,1,1.54,4.48,6.91,6.91,0,0,1-1.68,5,6.24,6.24,0,0,1-4.76,1.77,5.72,5.72,0,0,1-4.36-1.63,6.43,6.43,0,0,1-1.55-4.6,6.68,6.68,0,0,1,1.68-4.86,6.33,6.33,0,0,1,4.76-1.72A5.82,5.82,0,0,1,230.68,266.14Zm-6.07,1.6a1.62,1.62,0,0,0-.7,1,6.62,6.62,0,0,0-.22,1.94,9.42,9.42,0,0,0,.23,2.42,1.94,1.94,0,0,0,.74,1.17,2.54,2.54,0,0,0,1.43.34,2.78,2.78,0,0,0,1.39-.28,1.57,1.57,0,0,0,.7-1,6.49,6.49,0,0,0,.22-1.94,10,10,0,0,0-.22-2.41,1.91,1.91,0,0,0-.74-1.19,2.75,2.75,0,0,0-1.47-.34A2.84,2.84,0,0,0,224.61,267.74Z"/><path class="cls-1" d="M246.05,277.11h-4l-4.2-6.85h-.2l0,2.43.12,4.42h-3.3l.17-3.62-.17-8.72h4l4.2,6.83h.24l-.12-6.71,3.36-.2-.2,8.41Z"/><path class="cls-2" d="M251.16,273.78a1.9,1.9,0,0,1,.5,1.41,2.09,2.09,0,0,1-.56,1.55,2,2,0,0,1-1.48.57,1.87,1.87,0,0,1-1.41-.51,2,2,0,0,1-.48-1.44,2.12,2.12,0,0,1,.54-1.52,2,2,0,0,1,1.5-.57A1.84,1.84,0,0,1,251.16,273.78Z"/><path class="cls-2" d="M262.26,265.11l-.63,3-.27.14a4.92,4.92,0,0,0-2.65-.7,2.42,2.42,0,0,0-1.94.73,3.6,3.6,0,0,0-.64,2.38c0,2.43.94,3.64,2.8,3.64a6.74,6.74,0,0,0,2.7-.53l.31.19-.31,3a10.55,10.55,0,0,1-3,.41,6.43,6.43,0,0,1-4.75-1.62,6.26,6.26,0,0,1-1.61-4.65,6.42,6.42,0,0,1,1.72-4.8,6.68,6.68,0,0,1,4.89-1.69A10,10,0,0,1,262.26,265.11Z"/><path class="cls-2" d="M273.91,266.14a6.16,6.16,0,0,1,1.55,4.48,6.91,6.91,0,0,1-1.68,5,6.25,6.25,0,0,1-4.76,1.77,5.76,5.76,0,0,1-4.37-1.63,6.43,6.43,0,0,1-1.54-4.6,6.68,6.68,0,0,1,1.68-4.86,6.33,6.33,0,0,1,4.76-1.72A5.78,5.78,0,0,1,273.91,266.14Zm-6.06,1.6a1.62,1.62,0,0,0-.7,1,6.62,6.62,0,0,0-.22,1.94,9.42,9.42,0,0,0,.23,2.42,1.94,1.94,0,0,0,.74,1.17,2.54,2.54,0,0,0,1.43.34,2.8,2.8,0,0,0,1.39-.28,1.57,1.57,0,0,0,.7-1,6.49,6.49,0,0,0,.22-1.94,10,10,0,0,0-.22-2.41,1.91,1.91,0,0,0-.74-1.19,2.75,2.75,0,0,0-1.47-.34A2.81,2.81,0,0,0,267.85,267.74Z"/><path class="cls-2" d="M288.61,277.11l-.1-3.74-.32-3.23H288L285.67,276h-2.8l-2-5.81h-.25l-.31,2.89-.22,4.08H277l1.26-12.34h4.33l.41,1.77,1.36,4.59h.25l1.48-4.49.51-1.87h4.2l1.1,12.34Z"/><rect class="cls-3" width="360" height="360"/></g></svg>