<svg version="1.1" viewBox="0 0 161.04 200" xmlns="http://www.w3.org/2000/svg">
  <g transform="matrix(1.3333 0 0 -1.3333 -123.54 400)">
    <g transform="matrix(.6784 0 0 .6784 29.797 96.48)">
      <g transform="translate(190.19 78.887)">
        <path d="m0 0v10.939c7.854 0 13.184 1.727 15.989 5.19 2.805 3.458 4.207 8.647 4.207 15.567v58.344c0 9.537-1.92 17.343-5.75 23.423-3.835 6.073-10.707 9.115-20.617 9.115-1.122 0-2.901-0.188-5.33-0.56-2.433-0.377-5.145-1.219-8.135-2.525-2.993-1.31-5.987-3.182-8.975-5.61-2.994-2.433-5.707-5.706-8.135-9.818v-72.369c0-6.92 1.683-12.109 5.049-15.567 3.366-3.463 9.817-5.19 19.354-5.19l1.122-2.244-1.122-8.695h-83.869v10.939c8.976 0 15.147 1.727 18.513 5.19 3.366 3.458 5.049 8.647 5.049 15.567v159.32l-23.562 5.049v7.854l57.222 16.269 2.244-1.963v-101.26h1.122c4.86 8.976 11.172 15.66 18.934 20.056 7.758 4.392 16.783 6.592 27.069 6.592 15.146 0 26.551-4.348 34.221-13.044 7.666-8.695 11.501-20.244 11.501-34.641v-64.235c0-6.92 1.774-12.109 5.329-15.567 3.549-3.463 9.44-5.19 17.672-5.19l1.402-2.244-1.402-8.695z" fill="#221f1f"/>
      </g>
      <g transform="translate(198.6 147.98)">
        <path d="m0 0c-4.488 4.487-9.914 6.731-16.27 6.731-6.17 0-11.548-2.244-16.128-6.731-4.584-4.488-6.873-9.914-6.873-16.27 0-6.547 2.289-12.017 6.873-16.409 4.58-4.391 9.958-6.591 16.128-6.591 6.356 0 11.782 2.2 16.27 6.591 4.487 4.392 6.731 9.862 6.731 16.409 0 6.356-2.244 11.782-6.731 16.27" fill="#221f1f"/>
      </g>
      <g transform="translate(151.54 122.72)">
        <path d="m0 0v62.275c2.404 4.072 5.091 7.313 8.056 9.722 2.959 2.405 5.923 4.258 8.888 5.556 2.96 1.293 5.647 2.127 8.056 2.5 2.404 0.369 4.166 0.556 5.277 0.556 9.814 0 16.619-3.012 20.417-9.028 3.793-6.02 5.695-13.751 5.695-23.195v-39.945c1.702-1.474 2.963-3.338 2.96-3.34l3.402 1.055c6e-3 5e-3 9.211-6.421 16.611-12.976 3.998 2.201 8.516 4.614 12.582 6.707v54.332c0 14.258-3.798 25.696-11.389 34.306-7.595 8.612-18.889 12.917-33.889 12.917-10.186 0-19.123-2.179-26.806-6.528-7.686-4.352-13.936-10.973-18.75-19.861h-1.11v73.316h-35.557v-155.93c8.573 6.859 19.688 17.115 21.36 17.379 2.682 0.46 12.468-8.207 14.197-9.817" fill="#5b6770"/>
      </g>
      <g transform="translate(214.29 128.88)">
        <path d="m0 0-3.402-1.056c3e-3 2e-3 -1.258 1.867-2.96 3.341v-17.833c0-6.853-1.389-11.992-4.166-15.417-2.78-3.429-8.057-5.139-15.834-5.139v-10.833h78.333l1.389 8.611-1.389 2.222c-8.152 0-13.985 1.71-17.5 5.139-3.521 3.425-5.278 8.564-5.278 15.417v9.278c-4.066-2.092-8.584-4.505-12.582-6.707-7.4 6.556-16.605 12.982-16.611 12.977" fill="#9a3820"/>
      </g>
      <g transform="translate(110.98 97.913)">
        <path d="m0 0c-3.334-3.429-9.445-5.139-18.333-5.139v-10.833h83.055l1.111 8.611-1.111 2.222c-9.445 0-15.833 1.71-19.167 5.139-3.333 3.425-4.999 8.563-4.999 15.417v9.392c-1.729 1.61-11.515 10.277-14.198 9.817-1.671-0.265-12.787-10.521-21.359-17.38v-1.829c0-6.854-1.666-11.992-4.999-15.417" fill="#9a3820"/>
      </g>
      <g transform="translate(151.54 298.05)">
        <path d="m0 0-2.223 1.944-56.666-16.111v-7.778l23.332-5v-0.017h35.557z" fill="#9a3820"/>
      </g>
      <g transform="translate(195.53 150.37)">
        <path d="m0 0c-4.444 4.444-9.817 6.666-16.111 6.666-6.112 0-11.437-2.222-15.973-6.666-4.539-4.444-6.806-9.817-6.806-16.111 0-3.074 0.528-5.898 1.545-8.492 1.991 1.348 4.186 3.158 6.189 5.544l1.81-1.844c-0.042 0.02 10.822 12.542 14.648 11.414 3.245-2.869 6.634-10.241 6.628-10.243l2.605-0.098 2.233-5.567 1.935 4.059 1.169-0.255c-3e-3 4e-3 3.627 2.668 6.718 3.722 0.037 0.581 0.076 1.161 0.076 1.76 0 6.294-2.222 11.667-6.666 16.111" fill="#c1531b"/>
      </g>
      <g transform="translate(202.12 132.5)">
        <path d="m0 0c-3.091-1.054-6.721-3.718-6.718-3.722l-1.169 0.255-1.935-4.059-2.233 5.567-2.605 0.098c6e-3 2e-3 -3.383 7.374-6.628 10.243-3.826 1.128-14.69-11.394-14.648-11.414l-1.81 1.845c-2.003-2.387-4.197-4.197-6.189-5.544 1.131-2.879 2.873-5.471 5.261-7.759 4.536-4.349 9.862-6.529 15.973-6.529 6.294 0 11.667 2.18 16.111 6.529 4.033 3.947 6.217 8.784 6.59 14.49" fill="#9a3820"/>
      </g>
    </g>
  </g>
</svg>
